<?xml version="1.0" encoding="UTF-8"?>
<svg xmlns="http://www.w3.org/2000/svg" xmlns:xlink="http://www.w3.org/1999/xlink" width="709px" height="150px" viewBox="0 0 708 150" version="1.1">
<g id="surface1">
<path style=" stroke:none;fill-rule:evenodd;fill:rgb(14.117648%,16.078432%,17.647059%);fill-opacity:1;" d="M 134.253906 60.140625 L 67.972656 98.492188 C 67.972656 98.492188 65.007812 74.433594 81.117188 62.265625 C 94.402344 52.21875 125.773438 35.378906 125.773438 35.378906 "/>
<path style=" stroke:none;fill-rule:evenodd;fill:rgb(94.509804%,40.000001%,13.725491%);fill-opacity:1;" d="M 16.109375 100.046875 C 17.664062 105.566406 19.925781 110.800781 22.894531 116.039062 C 24.164062 118.300781 25.578125 120.425781 26.992188 122.40625 L 0.707031 137.6875 C 0.707031 137.6875 -2.121094 113.632812 13.992188 101.605469 C 14.554688 101.179688 15.261719 100.613281 16.109375 100.046875 Z M 16.109375 100.046875 "/>
<path style=" stroke:none;fill-rule:evenodd;fill:rgb(14.117648%,16.078432%,17.647059%);fill-opacity:1;" d="M 170.289062 57.167969 C 175.234375 86.886719 158.839844 123.253906 131.285156 139.246094 C 95.8125 159.765625 50.449219 147.59375 29.957031 112.074219 C 9.46875 76.414062 21.621094 30.992188 57.089844 10.472656 C 92.5625 -10.046875 137.925781 2.121094 158.417969 37.640625 C 158.699219 38.207031 161.527344 43.160156 161.667969 44.292969 L 132.980469 60.847656 C 132.414062 59.71875 130.578125 55.1875 130.011719 54.199219 C 118.566406 34.386719 92.421875 25.472656 72.636719 36.792969 C 52.851562 48.253906 44.375 76.414062 55.820312 96.226562 C 67.265625 116.039062 96.519531 125.378906 116.164062 114.054688 C 122.523438 110.378906 134.390625 101.460938 139.621094 88.019531 C 146.828125 69.480469 153.753906 63.820312 170.289062 57.167969 Z M 170.289062 57.167969 "/>
<path style=" stroke:none;fill-rule:nonzero;fill:rgb(94.509804%,40.000001%,13.725491%);fill-opacity:1;" d="M 236.140625 121.132812 L 218.757812 121.132812 C 217.628906 121.132812 216.640625 120.140625 216.640625 119.007812 L 216.640625 22.78125 C 216.640625 21.652344 217.628906 20.660156 218.757812 20.660156 L 236.140625 20.660156 C 237.273438 20.660156 238.261719 21.652344 238.261719 22.78125 L 238.261719 119.007812 C 238.261719 120.140625 237.273438 121.132812 236.140625 121.132812 Z M 282.210938 38.066406 L 233.597656 38.066406 C 232.46875 38.066406 231.476562 37.074219 231.476562 35.945312 L 231.476562 22.640625 C 231.476562 21.507812 232.46875 20.519531 233.597656 20.519531 L 282.210938 20.519531 C 283.339844 20.519531 284.332031 21.507812 284.332031 22.640625 L 284.332031 35.945312 C 284.332031 37.21875 283.339844 38.066406 282.210938 38.066406 Z M 275.285156 77.972656 L 233.457031 77.972656 C 232.324219 77.972656 231.335938 76.980469 231.335938 75.847656 L 231.335938 63.253906 C 231.335938 62.121094 232.324219 61.132812 233.457031 61.132812 L 275.285156 61.132812 C 276.417969 61.132812 277.40625 62.121094 277.40625 63.253906 L 277.40625 75.847656 C 277.546875 76.980469 276.558594 77.972656 275.285156 77.972656 Z M 282.210938 121.132812 L 233.457031 121.132812 C 232.324219 121.132812 231.335938 120.140625 231.335938 119.007812 L 231.335938 105.847656 C 231.335938 104.71875 232.324219 103.726562 233.457031 103.726562 L 282.210938 103.726562 C 283.339844 103.726562 284.332031 104.71875 284.332031 105.847656 L 284.332031 119.007812 C 284.332031 120.140625 283.484375 121.132812 282.210938 121.132812 Z M 282.210938 121.132812 "/>
<path style=" stroke:none;fill-rule:nonzero;fill:rgb(14.117648%,16.078432%,17.647059%);fill-opacity:1;" d="M 291.679688 83.207031 C 291.679688 75.566406 292.808594 68.914062 295.070312 63.253906 C 297.332031 57.59375 300.722656 53.066406 304.960938 49.8125 C 309.34375 46.554688 314.574219 45 320.933594 45 C 326.726562 45 331.671875 46.699219 335.628906 49.953125 C 339.585938 53.347656 342.695312 57.878906 344.957031 63.679688 C 347.214844 69.480469 348.769531 75.992188 349.621094 83.207031 C 349.621094 83.347656 349.621094 83.347656 349.621094 83.492188 L 349.621094 84.90625 C 349.621094 85.046875 349.621094 85.046875 349.621094 85.1875 C 348.769531 92.121094 347.214844 98.347656 344.957031 104.007812 C 342.695312 109.667969 339.585938 114.199219 335.628906 117.453125 C 331.671875 120.847656 326.726562 122.40625 320.789062 122.40625 C 314.574219 122.40625 309.34375 120.707031 304.960938 117.453125 C 300.582031 114.199219 297.332031 109.667969 295.070312 104.007812 C 292.808594 98.347656 291.679688 91.839844 291.679688 84.621094 Z M 312.59375 84.621094 C 312.59375 88.441406 313.019531 91.980469 313.867188 95.234375 C 314.714844 98.347656 316.125 100.894531 318.105469 102.734375 C 320.082031 104.574219 322.769531 105.566406 326.160156 105.566406 C 329.410156 105.566406 332.238281 104.859375 334.355469 103.300781 C 336.476562 101.746094 338.03125 99.765625 339.160156 97.074219 C 340.292969 94.386719 340.859375 91.414062 341.140625 87.878906 L 341.140625 80.660156 C 341 77.6875 340.714844 75 340.007812 72.734375 C 339.304688 70.472656 338.457031 68.492188 337.183594 66.792969 C 335.910156 65.09375 334.5 63.960938 332.660156 63.113281 C 330.824219 62.265625 328.703125 61.839844 326.300781 61.839844 C 323.050781 61.839844 320.367188 62.828125 318.246094 64.667969 C 316.269531 66.507812 314.714844 69.054688 313.867188 72.3125 C 313.019531 75.566406 312.453125 79.105469 312.453125 83.207031 L 312.453125 84.621094 Z M 340.714844 15 L 357.390625 15 C 358.523438 15 359.511719 15.992188 359.511719 17.121094 L 359.511719 118.867188 C 359.511719 120 358.523438 120.992188 357.390625 120.992188 L 342.554688 120.992188 C 341.421875 120.992188 340.574219 120.140625 340.433594 119.152344 L 338.597656 104.71875 C 338.597656 104.574219 338.597656 104.574219 338.597656 104.433594 L 338.597656 17.265625 C 338.597656 15.992188 339.585938 15 340.714844 15 Z M 340.714844 15 "/>
<path style=" stroke:none;fill-rule:nonzero;fill:rgb(14.117648%,16.078432%,17.647059%);fill-opacity:1;" d="M 424.375 87.59375 C 425.648438 87.59375 426.636719 88.585938 426.636719 89.859375 C 426.496094 95.660156 425.367188 100.894531 423.667969 105.566406 C 421.691406 110.800781 418.582031 115.046875 414.484375 118.019531 C 410.386719 120.992188 405.15625 122.546875 398.9375 122.546875 C 391.589844 122.546875 385.65625 120.425781 380.992188 116.039062 C 376.46875 111.792969 374.066406 104.574219 374.066406 94.671875 L 374.066406 48.539062 C 374.066406 47.40625 375.054688 46.414062 376.1875 46.414062 L 392.722656 46.414062 C 393.851562 46.414062 394.839844 47.40625 394.839844 48.539062 L 394.839844 94.953125 C 394.839844 97.5 395.265625 99.480469 396.113281 101.179688 C 396.960938 102.734375 398.089844 103.867188 399.644531 104.574219 C 401.199219 105.28125 402.894531 105.707031 404.875 105.707031 C 408.832031 105.707031 412.082031 104.859375 414.34375 103.300781 C 416.605469 101.746094 418.300781 99.621094 419.148438 96.933594 C 419.855469 94.8125 420.417969 92.40625 420.558594 89.71875 C 420.558594 88.585938 421.550781 87.734375 422.679688 87.734375 Z M 420.558594 46.414062 L 437.09375 46.414062 C 438.226562 46.414062 439.214844 47.40625 439.214844 48.539062 L 439.214844 119.007812 C 439.214844 120.140625 438.226562 121.132812 437.09375 121.132812 L 421.691406 121.132812 C 420.558594 121.132812 419.570312 120.28125 419.570312 119.152344 L 418.300781 103.160156 L 418.300781 48.539062 C 418.300781 47.40625 419.289062 46.414062 420.558594 46.414062 Z M 420.558594 46.414062 "/>
<path style=" stroke:none;fill-rule:nonzero;fill:rgb(14.117648%,16.078432%,17.647059%);fill-opacity:1;" d="M 472.425781 149.859375 L 455.890625 149.859375 C 454.761719 149.859375 453.769531 148.867188 453.769531 147.734375 L 453.769531 48.539062 C 453.769531 47.40625 454.761719 46.414062 455.890625 46.414062 L 471.152344 46.414062 C 472.285156 46.414062 473.132812 47.265625 473.273438 48.394531 L 474.546875 60.707031 C 474.546875 60.847656 474.546875 60.847656 474.546875 60.992188 L 474.546875 147.878906 C 474.6875 149.007812 473.695312 149.859375 472.425781 149.859375 Z M 521.605469 84.480469 C 521.605469 91.699219 520.472656 98.207031 518.210938 104.007812 C 515.949219 109.8125 512.699219 114.339844 508.460938 117.59375 C 504.222656 120.992188 498.851562 122.546875 492.492188 122.546875 C 486.414062 122.546875 481.328125 120.847656 477.371094 117.59375 C 473.414062 114.199219 470.445312 109.8125 468.1875 104.152344 C 466.066406 98.492188 464.511719 92.265625 463.523438 85.472656 C 463.523438 85.328125 463.523438 85.1875 463.523438 85.1875 L 463.523438 83.347656 C 463.523438 83.207031 463.523438 83.207031 463.523438 83.066406 C 464.511719 75.847656 465.925781 69.339844 468.1875 63.679688 C 470.304688 57.878906 473.414062 53.492188 477.371094 50.09375 C 481.328125 46.839844 486.273438 45.140625 492.351562 45.140625 C 498.710938 45.140625 503.9375 46.699219 508.320312 49.8125 C 512.699219 52.925781 515.949219 57.453125 518.210938 63.113281 C 520.472656 68.773438 521.605469 75.425781 521.605469 83.066406 Z M 500.6875 82.925781 C 500.6875 78.820312 500.265625 75.28125 499.277344 72.167969 C 498.429688 69.054688 496.875 66.507812 494.894531 64.667969 C 492.917969 62.828125 490.230469 61.980469 486.839844 61.980469 C 484.296875 61.980469 482.035156 62.40625 480.199219 63.253906 C 478.359375 64.105469 476.949219 65.234375 475.675781 66.792969 C 474.546875 68.347656 473.695312 70.328125 472.992188 72.59375 C 472.425781 74.859375 472.144531 77.546875 472 80.519531 L 472 88.160156 C 472.144531 91.554688 472.707031 94.527344 473.695312 97.21875 C 474.6875 99.90625 476.242188 102.027344 478.359375 103.585938 C 480.480469 105.140625 483.308594 105.847656 486.839844 105.847656 C 490.230469 105.847656 492.917969 104.859375 494.894531 102.878906 C 496.875 100.894531 498.285156 98.347656 499.132812 95.09375 C 499.980469 91.839844 500.40625 88.300781 500.40625 84.480469 L 500.40625 82.925781 Z M 500.6875 82.925781 "/>
<path style=" stroke:none;fill-rule:nonzero;fill:rgb(14.117648%,16.078432%,17.647059%);fill-opacity:1;" d="M 530.222656 83.066406 C 530.222656 75.847656 531.636719 69.339844 534.320312 63.539062 C 537.007812 57.734375 541.105469 53.207031 546.332031 49.953125 C 551.5625 46.699219 558.0625 45 565.550781 45 C 573.183594 45 579.683594 46.699219 584.914062 49.953125 C 590.140625 53.207031 594.238281 57.734375 596.925781 63.539062 C 599.609375 69.339844 601.023438 75.847656 601.023438 83.066406 L 601.023438 84.480469 C 601.023438 91.699219 599.609375 98.207031 596.925781 104.007812 C 594.238281 109.8125 590.140625 114.339844 584.914062 117.59375 C 579.683594 120.847656 573.183594 122.546875 565.550781 122.546875 C 557.921875 122.546875 551.5625 120.847656 546.191406 117.59375 C 540.820312 114.339844 536.863281 109.8125 534.039062 104.007812 C 531.210938 98.207031 529.941406 91.699219 529.941406 84.480469 L 529.941406 83.066406 Z M 551.136719 84.621094 C 551.136719 88.585938 551.5625 92.121094 552.550781 95.378906 C 553.539062 98.632812 555.09375 101.179688 557.214844 103.019531 C 559.335938 104.859375 562.300781 105.847656 565.835938 105.847656 C 569.367188 105.847656 572.335938 104.859375 574.457031 103.019531 C 576.574219 101.179688 578.128906 98.632812 579.117188 95.378906 C 580.109375 92.121094 580.53125 88.585938 580.53125 84.621094 L 580.53125 83.207031 C 580.53125 79.386719 580.109375 75.847656 579.117188 72.59375 C 578.128906 69.339844 576.574219 66.792969 574.457031 64.8125 C 572.335938 62.832031 569.367188 61.839844 565.695312 61.839844 C 562.160156 61.839844 559.191406 62.832031 557.074219 64.8125 C 554.953125 66.792969 553.398438 69.339844 552.550781 72.59375 C 551.5625 75.847656 551.136719 79.386719 551.136719 83.207031 Z M 551.136719 84.621094 "/>
<path style=" stroke:none;fill-rule:nonzero;fill:rgb(14.117648%,16.078432%,17.647059%);fill-opacity:1;" d="M 631.972656 121.132812 L 615.4375 121.132812 C 614.304688 121.132812 613.316406 120.140625 613.316406 119.007812 L 613.316406 48.539062 C 613.316406 47.40625 614.304688 46.414062 615.4375 46.414062 L 630.839844 46.414062 C 631.972656 46.414062 632.960938 47.265625 632.960938 48.394531 L 634.089844 63.539062 L 634.089844 119.007812 C 634.089844 120.140625 633.101562 121.132812 631.972656 121.132812 Z M 655.996094 63.679688 C 655.996094 64.953125 654.863281 65.941406 653.59375 65.800781 C 653.167969 65.800781 652.746094 65.660156 652.320312 65.660156 C 650.90625 65.519531 649.636719 65.519531 648.648438 65.519531 C 644.972656 65.519531 642.003906 66.085938 639.742188 67.21875 C 637.339844 68.347656 635.644531 70.046875 634.515625 72.167969 C 633.667969 73.726562 633.242188 75.425781 632.820312 77.546875 C 632.679688 78.960938 631.125 79.8125 629.851562 79.246094 C 629.003906 78.960938 628.578125 78.113281 628.578125 77.265625 C 628.722656 71.320312 629.570312 66.085938 630.980469 61.414062 C 632.679688 56.320312 635.082031 52.359375 638.332031 49.527344 C 641.582031 46.699219 645.394531 45.140625 650.058594 45.140625 C 651.050781 45.140625 652.179688 45.140625 653.453125 45.28125 C 653.875 45.28125 654.300781 45.425781 654.582031 45.425781 C 655.570312 45.566406 656.277344 46.554688 656.277344 47.546875 Z M 655.996094 63.679688 "/>
<path style=" stroke:none;fill-rule:nonzero;fill:rgb(14.117648%,16.078432%,17.647059%);fill-opacity:1;" d="M 703.902344 61.554688 L 664.191406 61.554688 C 663.0625 61.554688 662.070312 60.566406 662.070312 59.433594 L 662.070312 48.539062 C 662.070312 47.40625 663.0625 46.414062 664.191406 46.414062 L 703.902344 46.414062 C 705.03125 46.414062 706.023438 47.40625 706.023438 48.539062 L 706.023438 59.433594 C 706.023438 60.707031 705.171875 61.554688 703.902344 61.554688 Z M 691.324219 28.019531 C 692.457031 28.019531 693.445312 29.007812 693.445312 30.140625 L 693.445312 97.78125 C 693.445312 99.765625 693.726562 101.320312 694.292969 102.453125 C 694.859375 103.585938 695.707031 104.292969 696.835938 104.71875 C 697.964844 105.140625 699.378906 105.28125 701.074219 105.28125 C 702.347656 105.28125 703.476562 105.28125 704.324219 105.140625 L 704.46875 105.140625 C 705.738281 105 706.871094 105.992188 706.871094 107.265625 L 706.871094 118.867188 C 706.871094 119.859375 706.164062 120.707031 705.316406 120.992188 C 704.042969 121.414062 702.769531 121.699219 701.359375 121.839844 C 699.378906 122.121094 697.117188 122.265625 694.574219 122.265625 C 690.050781 122.265625 686.238281 121.554688 682.988281 120 C 679.738281 118.445312 677.191406 116.039062 675.355469 112.78125 C 673.519531 109.527344 672.671875 105.140625 672.671875 99.765625 L 672.671875 30.140625 C 672.671875 29.007812 673.660156 28.019531 674.789062 28.019531 Z M 691.324219 28.019531 "/>
</g>
</svg>
